<?xml version="1.0" standalone="no"?><!DOCTYPE svg PUBLIC "-//W3C//DTD SVG 1.1//EN" "http://www.w3.org/Graphics/SVG/1.1/DTD/svg11.dtd"><svg t="1574564066471" class="icon" viewBox="0 0 1024 1024" version="1.1" xmlns="http://www.w3.org/2000/svg" p-id="1770" width="100" height="100" xmlns:xlink="http://www.w3.org/1999/xlink"><defs><style type="text/css"></style></defs><path d="M575.508 534.97l99.542 99.54-39.834 39.834-99.54-99.54z" fill="#F9BB32" p-id="1771"></path><path d="M535.668 574.812l14.14-14.142 99.542 99.54-14.14 14.142z" fill="#DB9C2E" p-id="1772"></path><path d="M564.568 830.432l27.104-27.104c-18.152-58.266-4.238-124.456 41.828-170.522 46.066-46.066 112.256-59.98 170.522-41.828l25.71-25.71c11.716-11.716 30.71-11.716 42.426 0l-28.284-28.284c-11.716-11.716-30.71-11.716-42.426 0l-25.71 25.71c-58.266-18.152-124.456-4.236-170.522 41.828-46.066 46.066-59.98 112.256-41.828 170.522l-27.104 27.104c-11.716 11.716-11.716 30.71 0 42.426l28.284 28.284c-11.714-11.716-11.714-30.71 0-42.426zM275.674 203.834l0.098-0.098-50.594-50.594-13.19 13.19-44.956 44.956-13.094 13.094 50.594 50.594s263.9 268.07 309.258 283.07l44.956-44.956c-15.002-45.356-283.072-309.256-283.072-309.256z" fill="#BF6C0D" p-id="1773"></path><path d="M242.192 242.064l35.872-35.872-2.39-2.36 0.096-0.096-50.594-50.594-13.19 13.19-34.008 34.008-10.948 10.948-13.094 13.094 50.594 50.594s263.9 268.07 309.258 283.07l24.042-24.042c-39.156-12.948-241.168-214.486-295.684-269.36a15.988 15.988 0 0 1 0.046-22.58z" fill="#A56021" p-id="1774"></path><path d="M151.084 256.806l-55.448-55.448c-9.372-9.372-9.372-24.568 0-33.942l72.478-72.478c9.372-9.372 24.568-9.372 33.942 0l55.448 55.448c9.372 9.372 9.372 24.568 0 33.942l-72.478 72.478c-9.374 9.372-24.57 9.372-33.942 0z" fill="#CCC033" p-id="1775"></path><path d="M142.304 211.256c-9.372-9.372-9.372-24.57 0-33.942l71.064-71.064-11.314-11.314c-9.372-9.372-24.568-9.374-33.942 0l-72.478 72.48c-9.372 9.372-9.372 24.568 0 33.942l55.448 55.448c9.372 9.372 24.57 9.372 33.942 0l1.414-1.414-44.134-44.136z" fill="#99AF17" p-id="1776"></path><path d="M527.934 598.574l-16.022-16.022a16 16 0 0 1 0-22.628l46.108-46.108a16 16 0 0 1 22.628 0l16.022 16.022a16 16 0 0 1 0 22.628l-46.108 46.108a16 16 0 0 1-22.628 0z" fill="#FFDF74" p-id="1777"></path><path d="M541.61 581.138a16 16 0 0 1 0-22.628l41.866-41.866-2.828-2.828a16 16 0 0 0-22.628 0l-46.108 46.108a16 16 0 0 0 0 22.628l16.022 16.022a16 16 0 0 0 22.628 0l4.242-4.242-13.194-13.194z" fill="#FFC34C" p-id="1778"></path><path d="M859.07 858.372c46.066-46.066 59.98-112.256 41.828-170.522l25.71-25.71c11.716-11.716 11.716-30.71 0-42.426l-68.59-68.59c-11.716-11.716-30.71-11.716-42.426 0l-25.71 25.71c-58.266-18.152-124.456-4.236-170.522 41.828-46.066 46.066-59.98 112.256-41.828 170.522l-27.104 27.104c-11.716 11.716-11.716 30.71 0 42.426l68.59 68.59c11.716 11.716 30.71 11.716 42.426 0l27.104-27.104c58.266 18.152 124.456 4.238 170.522-41.828z" fill="#DB9C2E" p-id="1779"></path><path d="M739.216 738.518m-139.5 0a139.5 139.5 0 1 0 279 0 139.5 139.5 0 1 0-279 0Z" fill="#F9BB32" p-id="1780"></path><path d="M739.216 738.518m-129.5 0a129.5 129.5 0 1 0 259 0 129.5 129.5 0 1 0-259 0Z" fill="#FFD551" p-id="1781"></path><path d="M671.686 807.814c-49.096-49.096-53.858-125.982-14.318-180.49a140.18 140.18 0 0 0-16.794 14.318c-54.39 54.39-54.39 142.892 0 197.282 54.39 54.39 142.892 54.39 197.282 0a139.814 139.814 0 0 0 14.318-16.794c-54.506 39.544-131.39 34.782-180.488-14.316zM523.04 508.002a11.998 11.998 0 0 1-10.64-6.436c-3.864-7.378-32.06-35.478-57.088-58.382a12 12 0 0 1 16.204-17.704c9.02 8.254 54.41 50.184 62.146 64.954a12 12 0 0 1-10.622 17.568z" fill="#F9BB32" p-id="1782"></path><path d="M238.302 178.17a11.956 11.956 0 0 1-8.484-3.514L203.8 148.64a11.998 11.998 0 1 1 16.968-16.97l26.018 26.016a11.998 11.998 0 0 1-8.484 20.484z" fill="#EACF32" p-id="1783"></path><path d="M908.64 653.344a11.964 11.964 0 0 1-8.484-3.514l-56.28-56.28a11.996 11.996 0 0 1 0-16.97 11.998 11.998 0 0 1 16.968 0l56.28 56.28a11.996 11.996 0 0 1-8.484 20.484z" fill="#F9BB32" p-id="1784"></path><path d="M725.978 659.046m-30 0a30 30 0 1 0 60 0 30 30 0 1 0-60 0Z" fill="#F9BB32" p-id="1785"></path></svg>